<svg width="500" height="383" viewBox="0 0 500 383" fill="none" xmlns="http://www.w3.org/2000/svg">
<path fill-rule="evenodd" clip-rule="evenodd" d="M256.611 138.456L242.076 113.282L295.974 82.1647C302.632 78.3207 306.942 74.2538 308.906 69.964C310.869 65.6742 310.357 60.9445 307.37 55.7751C303.303 48.7315 298.012 44.9997 291.496 44.5799C284.981 44.16 276.276 47.0951 265.381 53.3851L221.966 78.4506L207.432 53.277L299.711 0L310.814 19.231L300.964 29.4304L301.774 30.8333C307.821 31.056 313.668 33.0596 318.58 36.5928C323.987 40.5119 328.466 45.5704 331.703 51.411C337.896 62.1387 339.695 71.9584 337.1 80.8699C334.505 89.7815 327.732 97.3971 316.78 103.717L256.611 138.456ZM375.789 344.879L403.961 319.145L439.211 286.037L438.878 285.461L356.111 310.797L340.481 283.725L417.604 204.198L432.091 229.289L397.381 263.524C391.048 269.455 381.951 277.017 370.091 286.209L370.377 286.704C374.685 284.51 381.872 281.645 391.936 278.109L399.714 275.38L450.533 261.231L466.544 288.964L428.547 325.318C427.461 326.238 425.872 327.615 423.777 329.447C421.683 331.28 419.428 333.188 417.011 335.17C414.597 337.151 412.213 339.059 409.861 340.894C407.509 342.729 405.579 344.119 404.07 345.063L404.356 345.559C408.604 343.767 414.546 341.51 422.182 338.788C429.819 336.067 435.006 334.283 437.744 333.435L484.986 320.906L499.236 345.587L391.611 372.284L375.789 344.879ZM184.139 63.528L368.277 382.465H0L184.139 63.528ZM396.966 177.314C396.966 209.899 370.551 236.314 337.966 236.314C305.381 236.314 278.966 209.899 278.966 177.314C278.966 144.729 305.381 118.314 337.966 118.314C370.551 118.314 396.966 144.729 396.966 177.314Z" fill="#C4C4C4"/>
</svg>
